<svg width="700" height="700" viewBox="0 0 700 700" fill="none" xmlns="http://www.w3.org/2000/svg">
<circle cx="350" cy="350" r="350" fill="black"/>
<rect x="182" y="340" width="114" height="105" fill="black"/>
<path d="M461.593 526.712C478.514 520.089 494.777 511.988 510.17 502.584L512.046 501.438L510.295 500.109C506.188 496.991 502.126 493.73 498.153 490.374L497.412 489.747L496.536 490.167C402.12 535.471 298.315 535.474 202.743 490.164L201.865 489.747L201.126 490.379C197.205 493.731 193.146 496.989 188.997 500.105L187.228 501.433L189.117 502.585C204.464 511.943 220.683 520.042 237.603 526.664C228.84 544.292 218.745 561.055 207.479 576.869C160.005 561.765 111.724 538.783 61.9103 501.172C51.7681 389.67 72.3621 276.592 147.981 160.599C185.194 142.945 224.994 130.057 266.586 122.664C271.679 132.01 277.581 144.235 281.595 154.01L282.045 155.104L283.213 154.923C327.102 148.107 371.403 148.107 416.123 154.923L417.288 155.101L417.736 154.011C421.755 144.229 427.528 132.005 432.567 122.665C474.114 130.058 513.868 142.899 551.08 160.506C616.657 259.918 649.269 371.967 637.376 501.172C587.561 538.831 539.234 561.813 491.714 576.917C480.409 561.106 470.355 544.302 461.593 526.712ZM198.811 372.541C198.811 406.362 222.917 434.504 252.75 434.504C283.091 434.504 306.728 406.36 306.688 372.552C307.196 338.66 283.075 310.531 252.75 310.531C222.402 310.531 198.811 338.732 198.811 372.541ZM392.598 372.541C392.598 406.362 416.704 434.504 446.537 434.504C476.879 434.504 500.469 406.359 500.475 372.554C500.984 338.661 476.862 310.531 446.537 310.531C416.188 310.531 392.598 338.732 392.598 372.541Z" fill="white" stroke="black" stroke-width="3"/>
<rect width="146.399" height="68.7426" transform="matrix(0.839916 0.542717 -0.53237 0.846512 229.725 278.578)" fill="white"/>
<ellipse cx="79" cy="69" rx="79" ry="69" transform="matrix(0.924573 0.381004 -0.372255 0.928131 393.448 275.822)" fill="black"/>
<rect width="191.857" height="90.7825" transform="matrix(0.930438 0.36645 -0.357932 0.933748 389.494 238)" fill="white"/>
<rect x="94" y="223.433" width="40.5893" height="588.377" transform="rotate(-68.8783 94 223.433)" fill="black"/>
</svg>
