<svg width="608" height="486" viewBox="0 0 608 486" fill="none" xmlns="http://www.w3.org/2000/svg">
<path d="M511.107 49.023L510.184 47.6263L508.672 46.909C470.434 28.7748 429.547 15.5949 386.801 8.09038L382.56 7.34572L380.497 11.126C375.919 19.5147 370.702 30.3518 366.623 39.8271C324.302 33.8103 282.321 33.8041 240.697 39.8169C236.58 30.3171 231.25 19.477 226.641 11.1062L224.573 7.34939L220.349 8.09019C177.554 15.5953 136.618 28.8242 98.3796 47.0064L96.855 47.7314L95.9321 49.145C18.9779 167.018 -1.93422 282.142 8.50221 395.519L8.74487 398.155L10.8557 399.753C61.9563 438.433 111.532 461.961 160.258 477.35L164.407 478.66L166.941 475.124C179.013 458.284 189.781 440.379 199.059 421.507L201.953 415.619L195.831 413.261C181.529 407.752 167.729 401.16 154.537 393.62C155.374 392.944 156.205 392.264 157.031 391.579C252.479 435.659 355.897 435.676 450.286 391.583C451.112 392.264 451.941 392.94 452.774 393.612C439.533 401.189 425.685 407.792 411.363 413.308L405.235 415.669L408.138 421.56C417.409 440.37 428.131 458.325 440.259 475.18L442.795 478.703L446.935 477.397C495.707 462.009 545.33 438.482 596.433 399.75L598.538 398.155L598.783 395.525C611.031 264.074 577.825 150.015 511.107 49.023ZM253.188 265.45L253.188 265.5L253.188 265.549C253.23 296.293 231.949 320.004 206.75 320.004C182.027 320.004 160.311 296.259 160.311 265.541C160.311 234.777 181.563 211.031 206.75 211.031C232.013 211.031 253.654 234.802 253.188 265.45ZM446.975 265.45L446.975 265.496V265.541C446.975 296.299 425.729 320.004 400.537 320.004C375.814 320.004 354.098 296.259 354.098 265.541C354.098 234.777 375.349 211.031 400.537 211.031C425.799 211.031 447.44 234.802 446.975 265.45Z" fill="white" stroke="black" stroke-width="12"/>
<rect width="146.399" height="68.7426" transform="matrix(0.839916 0.542717 -0.53237 0.846512 183.725 171.578)" fill="white"/>
<ellipse cx="79" cy="69" rx="79" ry="69" transform="matrix(0.924573 0.381004 -0.372255 0.928131 347.448 168.822)" fill="black"/>
<rect width="191.857" height="90.7825" transform="matrix(0.930438 0.36645 -0.357932 0.933748 343.494 131)" fill="white"/>
</svg>
